solid OpenSCAD_Model
  facet normal -0 0 1
    outer loop
      vertex 0 10 15
      vertex 54 0 15
      vertex 54 10 15
    endloop
  endfacet
  facet normal 0 0 1
    outer loop
      vertex 54 0 15
      vertex 0 10 15
      vertex 0 0 15
    endloop
  endfacet
  facet normal 0 0 -1
    outer loop
      vertex 0 0 0
      vertex 54 10 0
      vertex 54 0 0
    endloop
  endfacet
  facet normal -0 0 -1
    outer loop
      vertex 54 10 0
      vertex 0 0 0
      vertex 0 10 0
    endloop
  endfacet
  facet normal 0 -1 0
    outer loop
      vertex 0 0 0
      vertex 54 0 15
      vertex 0 0 15
    endloop
  endfacet
  facet normal 0 -1 -0
    outer loop
      vertex 54 0 15
      vertex 0 0 0
      vertex 54 0 0
    endloop
  endfacet
  facet normal 1 -0 0
    outer loop
      vertex 54 0 15
      vertex 54 10 0
      vertex 54 10 15
    endloop
  endfacet
  facet normal 1 0 0
    outer loop
      vertex 54 10 0
      vertex 54 0 15
      vertex 54 0 0
    endloop
  endfacet
  facet normal 0 1 -0
    outer loop
      vertex 54 10 0
      vertex 0 10 15
      vertex 54 10 15
    endloop
  endfacet
  facet normal 0 1 0
    outer loop
      vertex 0 10 15
      vertex 54 10 0
      vertex 0 10 0
    endloop
  endfacet
  facet normal -1 0 0
    outer loop
      vertex 0 0 0
      vertex 0 10 15
      vertex 0 10 0
    endloop
  endfacet
  facet normal -1 -0 0
    outer loop
      vertex 0 10 15
      vertex 0 0 0
      vertex 0 0 15
    endloop
  endfacet
endsolid OpenSCAD_Model
