solid OpenSCAD_Model
  facet normal 0.98229 0.187369 0
    outer loop
      vertex 2.97634 0.375999 10.4
      vertex 2.90575 0.746069 2.4
      vertex 2.90575 0.746069 10.4
    endloop
  endfacet
  facet normal 0.98229 0.187369 0
    outer loop
      vertex 2.90575 0.746069 2.4
      vertex 2.97634 0.375999 10.4
      vertex 2.97634 0.375999 2.4
    endloop
  endfacet
  facet normal 0.998026 0.0628015 0
    outer loop
      vertex 3 0 10.4
      vertex 2.97634 0.375999 2.4
      vertex 2.97634 0.375999 10.4
    endloop
  endfacet
  facet normal 0.998026 0.0628015 0
    outer loop
      vertex 2.97634 0.375999 2.4
      vertex 3 0 10.4
      vertex 3 0 2.4
    endloop
  endfacet
  facet normal -0.770514 0.637423 0
    outer loop
      vertex -2.42705 1.76336 2.4
      vertex -2.18691 2.05364 10.4
      vertex -2.18691 2.05364 2.4
    endloop
  endfacet
  facet normal -0.770514 0.637423 0
    outer loop
      vertex -2.18691 2.05364 10.4
      vertex -2.42705 1.76336 2.4
      vertex -2.42705 1.76336 10.4
    endloop
  endfacet
  facet normal 0.684541 0.728974 -0
    outer loop
      vertex 2.18691 2.05364 2.4
      vertex 1.91227 2.31154 10.4
      vertex 2.18691 2.05364 10.4
    endloop
  endfacet
  facet normal 0.684541 0.728974 0
    outer loop
      vertex 1.91227 2.31154 10.4
      vertex 2.18691 2.05364 2.4
      vertex 1.91227 2.31154 2.4
    endloop
  endfacet
  facet normal -0.125337 -0.992114 0
    outer loop
      vertex -0.562143 -2.94686 2.4
      vertex -0.188371 -2.99408 10.4
      vertex -0.562143 -2.94686 10.4
    endloop
  endfacet
  facet normal -0.125337 -0.992114 -0
    outer loop
      vertex -0.188371 -2.99408 10.4
      vertex -0.562143 -2.94686 2.4
      vertex -0.188371 -2.99408 2.4
    endloop
  endfacet
  facet normal -0.58778 -0.809021 0
    outer loop
      vertex -1.91227 -2.31154 2.4
      vertex -1.60748 -2.53298 10.4
      vertex -1.91227 -2.31154 10.4
    endloop
  endfacet
  facet normal -0.58778 -0.809021 -0
    outer loop
      vertex -1.60748 -2.53298 10.4
      vertex -1.91227 -2.31154 2.4
      vertex -1.60748 -2.53298 2.4
    endloop
  endfacet
  facet normal 0.368126 -0.929776 0
    outer loop
      vertex 0.927051 -2.85317 2.4
      vertex 1.27734 -2.71448 10.4
      vertex 0.927051 -2.85317 10.4
    endloop
  endfacet
  facet normal 0.368126 -0.929776 0
    outer loop
      vertex 1.27734 -2.71448 10.4
      vertex 0.927051 -2.85317 2.4
      vertex 1.27734 -2.71448 2.4
    endloop
  endfacet
  facet normal 0.904828 -0.425778 0
    outer loop
      vertex 2.62892 -1.44526 10.4
      vertex 2.78933 -1.10437 2.4
      vertex 2.78933 -1.10437 10.4
    endloop
  endfacet
  facet normal 0.904828 -0.425778 0
    outer loop
      vertex 2.78933 -1.10437 2.4
      vertex 2.62892 -1.44526 10.4
      vertex 2.62892 -1.44526 2.4
    endloop
  endfacet
  facet normal 0.248684 0.968585 -0
    outer loop
      vertex 0.927051 2.85317 2.4
      vertex 0.562143 2.94686 10.4
      vertex 0.927051 2.85317 10.4
    endloop
  endfacet
  facet normal 0.248684 0.968585 0
    outer loop
      vertex 0.562143 2.94686 10.4
      vertex 0.927051 2.85317 2.4
      vertex 0.562143 2.94686 2.4
    endloop
  endfacet
  facet normal 0.58778 -0.809021 0
    outer loop
      vertex 1.60748 -2.53298 2.4
      vertex 1.91227 -2.31154 10.4
      vertex 1.60748 -2.53298 10.4
    endloop
  endfacet
  facet normal 0.58778 -0.809021 0
    outer loop
      vertex 1.91227 -2.31154 10.4
      vertex 1.60748 -2.53298 2.4
      vertex 1.91227 -2.31154 2.4
    endloop
  endfacet
  facet normal -0.98229 0.187369 0
    outer loop
      vertex -2.97634 0.375999 2.4
      vertex -2.90575 0.746069 10.4
      vertex -2.90575 0.746069 2.4
    endloop
  endfacet
  facet normal -0.98229 0.187369 0
    outer loop
      vertex -2.90575 0.746069 10.4
      vertex -2.97634 0.375999 2.4
      vertex -2.97634 0.375999 10.4
    endloop
  endfacet
  facet normal -0.684541 -0.728974 0
    outer loop
      vertex -2.18691 -2.05364 2.4
      vertex -1.91227 -2.31154 10.4
      vertex -2.18691 -2.05364 10.4
    endloop
  endfacet
  facet normal -0.684541 -0.728974 -0
    outer loop
      vertex -1.91227 -2.31154 10.4
      vertex -2.18691 -2.05364 2.4
      vertex -1.91227 -2.31154 2.4
    endloop
  endfacet
  facet normal 0.481762 0.876302 -0
    outer loop
      vertex 1.60748 2.53298 2.4
      vertex 1.27734 2.71448 10.4
      vertex 1.60748 2.53298 10.4
    endloop
  endfacet
  facet normal 0.481762 0.876302 0
    outer loop
      vertex 1.27734 2.71448 10.4
      vertex 1.60748 2.53298 2.4
      vertex 1.27734 2.71448 2.4
    endloop
  endfacet
  facet normal -0.481762 0.876302 0
    outer loop
      vertex -1.27734 2.71448 2.4
      vertex -1.60748 2.53298 10.4
      vertex -1.27734 2.71448 10.4
    endloop
  endfacet
  facet normal -0.481762 0.876302 0
    outer loop
      vertex -1.60748 2.53298 10.4
      vertex -1.27734 2.71448 2.4
      vertex -1.60748 2.53298 2.4
    endloop
  endfacet
  facet normal 0.904828 0.425778 0
    outer loop
      vertex 2.78933 1.10437 10.4
      vertex 2.62892 1.44526 2.4
      vertex 2.62892 1.44526 10.4
    endloop
  endfacet
  facet normal 0.904828 0.425778 0
    outer loop
      vertex 2.62892 1.44526 2.4
      vertex 2.78933 1.10437 10.4
      vertex 2.78933 1.10437 2.4
    endloop
  endfacet
  facet normal 0.998026 -0.0628015 0
    outer loop
      vertex 2.97634 -0.375999 10.4
      vertex 3 0 2.4
      vertex 3 0 10.4
    endloop
  endfacet
  facet normal 0.998026 -0.0628015 0
    outer loop
      vertex 3 0 2.4
      vertex 2.97634 -0.375999 10.4
      vertex 2.97634 -0.375999 2.4
    endloop
  endfacet
  facet normal -0.998026 0.0628015 0
    outer loop
      vertex -3 0 2.4
      vertex -2.97634 0.375999 10.4
      vertex -2.97634 0.375999 2.4
    endloop
  endfacet
  facet normal -0.998026 0.0628015 0
    outer loop
      vertex -2.97634 0.375999 10.4
      vertex -3 0 2.4
      vertex -3 0 10.4
    endloop
  endfacet
  facet normal 0.125337 -0.992114 0
    outer loop
      vertex 0.188371 -2.99408 2.4
      vertex 0.562143 -2.94686 10.4
      vertex 0.188371 -2.99408 10.4
    endloop
  endfacet
  facet normal 0.125337 -0.992114 0
    outer loop
      vertex 0.562143 -2.94686 10.4
      vertex 0.188371 -2.99408 2.4
      vertex 0.562143 -2.94686 2.4
    endloop
  endfacet
  facet normal -0.951056 0.309019 0
    outer loop
      vertex -2.90575 0.746069 2.4
      vertex -2.78933 1.10437 10.4
      vertex -2.78933 1.10437 2.4
    endloop
  endfacet
  facet normal -0.951056 0.309019 0
    outer loop
      vertex -2.78933 1.10437 10.4
      vertex -2.90575 0.746069 2.4
      vertex -2.90575 0.746069 10.4
    endloop
  endfacet
  facet normal 0.844331 0.535822 0
    outer loop
      vertex 2.62892 1.44526 10.4
      vertex 2.42705 1.76336 2.4
      vertex 2.42705 1.76336 10.4
    endloop
  endfacet
  facet normal 0.844331 0.535822 0
    outer loop
      vertex 2.42705 1.76336 2.4
      vertex 2.62892 1.44526 10.4
      vertex 2.62892 1.44526 2.4
    endloop
  endfacet
  facet normal 0.951056 -0.309019 0
    outer loop
      vertex 2.78933 -1.10437 10.4
      vertex 2.90575 -0.746069 2.4
      vertex 2.90575 -0.746069 10.4
    endloop
  endfacet
  facet normal 0.951056 -0.309019 0
    outer loop
      vertex 2.90575 -0.746069 2.4
      vertex 2.78933 -1.10437 10.4
      vertex 2.78933 -1.10437 2.4
    endloop
  endfacet
  facet normal -0.684541 0.728974 0
    outer loop
      vertex -1.91227 2.31154 2.4
      vertex -2.18691 2.05364 10.4
      vertex -1.91227 2.31154 10.4
    endloop
  endfacet
  facet normal -0.684541 0.728974 0
    outer loop
      vertex -2.18691 2.05364 10.4
      vertex -1.91227 2.31154 2.4
      vertex -2.18691 2.05364 2.4
    endloop
  endfacet
  facet normal -0.248684 -0.968585 0
    outer loop
      vertex -0.927051 -2.85317 2.4
      vertex -0.562143 -2.94686 10.4
      vertex -0.927051 -2.85317 10.4
    endloop
  endfacet
  facet normal -0.248684 -0.968585 -0
    outer loop
      vertex -0.562143 -2.94686 10.4
      vertex -0.927051 -2.85317 2.4
      vertex -0.562143 -2.94686 2.4
    endloop
  endfacet
  facet normal 0.248684 -0.968585 0
    outer loop
      vertex 0.562143 -2.94686 2.4
      vertex 0.927051 -2.85317 10.4
      vertex 0.562143 -2.94686 10.4
    endloop
  endfacet
  facet normal 0.248684 -0.968585 0
    outer loop
      vertex 0.927051 -2.85317 10.4
      vertex 0.562143 -2.94686 2.4
      vertex 0.927051 -2.85317 2.4
    endloop
  endfacet
  facet normal 0.125337 0.992114 -0
    outer loop
      vertex 0.562143 2.94686 2.4
      vertex 0.188371 2.99408 10.4
      vertex 0.562143 2.94686 10.4
    endloop
  endfacet
  facet normal 0.125337 0.992114 0
    outer loop
      vertex 0.188371 2.99408 10.4
      vertex 0.562143 2.94686 2.4
      vertex 0.188371 2.99408 2.4
    endloop
  endfacet
  facet normal 0.98229 -0.187369 0
    outer loop
      vertex 2.90575 -0.746069 10.4
      vertex 2.97634 -0.375999 2.4
      vertex 2.97634 -0.375999 10.4
    endloop
  endfacet
  facet normal 0.98229 -0.187369 0
    outer loop
      vertex 2.97634 -0.375999 2.4
      vertex 2.90575 -0.746069 10.4
      vertex 2.90575 -0.746069 2.4
    endloop
  endfacet
  facet normal -0.98229 -0.187369 0
    outer loop
      vertex -2.90575 -0.746069 2.4
      vertex -2.97634 -0.375999 10.4
      vertex -2.97634 -0.375999 2.4
    endloop
  endfacet
  facet normal -0.98229 -0.187369 0
    outer loop
      vertex -2.97634 -0.375999 10.4
      vertex -2.90575 -0.746069 2.4
      vertex -2.90575 -0.746069 10.4
    endloop
  endfacet
  facet normal 0 -1 0
    outer loop
      vertex -0.188371 -2.99408 2.4
      vertex 0.188371 -2.99408 10.4
      vertex -0.188371 -2.99408 10.4
    endloop
  endfacet
  facet normal 0 -1 -0
    outer loop
      vertex 0.188371 -2.99408 10.4
      vertex -0.188371 -2.99408 2.4
      vertex 0.188371 -2.99408 2.4
    endloop
  endfacet
  facet normal 0.58778 0.809021 -0
    outer loop
      vertex 1.91227 2.31154 2.4
      vertex 1.60748 2.53298 10.4
      vertex 1.91227 2.31154 10.4
    endloop
  endfacet
  facet normal 0.58778 0.809021 0
    outer loop
      vertex 1.60748 2.53298 10.4
      vertex 1.91227 2.31154 2.4
      vertex 1.60748 2.53298 2.4
    endloop
  endfacet
  facet normal 0.481762 -0.876302 0
    outer loop
      vertex 1.27734 -2.71448 2.4
      vertex 1.60748 -2.53298 10.4
      vertex 1.27734 -2.71448 10.4
    endloop
  endfacet
  facet normal 0.481762 -0.876302 0
    outer loop
      vertex 1.60748 -2.53298 10.4
      vertex 1.27734 -2.71448 2.4
      vertex 1.60748 -2.53298 2.4
    endloop
  endfacet
  facet normal -0.368126 0.929776 0
    outer loop
      vertex -0.927051 2.85317 2.4
      vertex -1.27734 2.71448 10.4
      vertex -0.927051 2.85317 10.4
    endloop
  endfacet
  facet normal -0.368126 0.929776 0
    outer loop
      vertex -1.27734 2.71448 10.4
      vertex -0.927051 2.85317 2.4
      vertex -1.27734 2.71448 2.4
    endloop
  endfacet
  facet normal -0.904828 0.425778 0
    outer loop
      vertex -2.78933 1.10437 2.4
      vertex -2.62892 1.44526 10.4
      vertex -2.62892 1.44526 2.4
    endloop
  endfacet
  facet normal -0.904828 0.425778 0
    outer loop
      vertex -2.62892 1.44526 10.4
      vertex -2.78933 1.10437 2.4
      vertex -2.78933 1.10437 10.4
    endloop
  endfacet
  facet normal 0.684541 -0.728974 0
    outer loop
      vertex 1.91227 -2.31154 2.4
      vertex 2.18691 -2.05364 10.4
      vertex 1.91227 -2.31154 10.4
    endloop
  endfacet
  facet normal 0.684541 -0.728974 0
    outer loop
      vertex 2.18691 -2.05364 10.4
      vertex 1.91227 -2.31154 2.4
      vertex 2.18691 -2.05364 2.4
    endloop
  endfacet
  facet normal -0.58778 0.809021 0
    outer loop
      vertex -1.60748 2.53298 2.4
      vertex -1.91227 2.31154 10.4
      vertex -1.60748 2.53298 10.4
    endloop
  endfacet
  facet normal -0.58778 0.809021 0
    outer loop
      vertex -1.91227 2.31154 10.4
      vertex -1.60748 2.53298 2.4
      vertex -1.91227 2.31154 2.4
    endloop
  endfacet
  facet normal 0.368126 0.929776 -0
    outer loop
      vertex 1.27734 2.71448 2.4
      vertex 0.927051 2.85317 10.4
      vertex 1.27734 2.71448 10.4
    endloop
  endfacet
  facet normal 0.368126 0.929776 0
    outer loop
      vertex 0.927051 2.85317 10.4
      vertex 1.27734 2.71448 2.4
      vertex 0.927051 2.85317 2.4
    endloop
  endfacet
  facet normal -0.904828 -0.425778 0
    outer loop
      vertex -2.62892 -1.44526 2.4
      vertex -2.78933 -1.10437 10.4
      vertex -2.78933 -1.10437 2.4
    endloop
  endfacet
  facet normal -0.904828 -0.425778 0
    outer loop
      vertex -2.78933 -1.10437 10.4
      vertex -2.62892 -1.44526 2.4
      vertex -2.62892 -1.44526 10.4
    endloop
  endfacet
  facet normal -0.770514 -0.637423 0
    outer loop
      vertex -2.18691 -2.05364 2.4
      vertex -2.42705 -1.76336 10.4
      vertex -2.42705 -1.76336 2.4
    endloop
  endfacet
  facet normal -0.770514 -0.637423 0
    outer loop
      vertex -2.42705 -1.76336 10.4
      vertex -2.18691 -2.05364 2.4
      vertex -2.18691 -2.05364 10.4
    endloop
  endfacet
  facet normal 0.844331 -0.535822 0
    outer loop
      vertex 2.42705 -1.76336 10.4
      vertex 2.62892 -1.44526 2.4
      vertex 2.62892 -1.44526 10.4
    endloop
  endfacet
  facet normal 0.844331 -0.535822 0
    outer loop
      vertex 2.62892 -1.44526 2.4
      vertex 2.42705 -1.76336 10.4
      vertex 2.42705 -1.76336 2.4
    endloop
  endfacet
  facet normal 0.770514 0.637423 0
    outer loop
      vertex 2.42705 1.76336 10.4
      vertex 2.18691 2.05364 2.4
      vertex 2.18691 2.05364 10.4
    endloop
  endfacet
  facet normal 0.770514 0.637423 0
    outer loop
      vertex 2.18691 2.05364 2.4
      vertex 2.42705 1.76336 10.4
      vertex 2.42705 1.76336 2.4
    endloop
  endfacet
  facet normal 0.951056 0.309019 0
    outer loop
      vertex 2.90575 0.746069 10.4
      vertex 2.78933 1.10437 2.4
      vertex 2.78933 1.10437 10.4
    endloop
  endfacet
  facet normal 0.951056 0.309019 0
    outer loop
      vertex 2.78933 1.10437 2.4
      vertex 2.90575 0.746069 10.4
      vertex 2.90575 0.746069 2.4
    endloop
  endfacet
  facet normal -0.248684 0.968585 0
    outer loop
      vertex -0.562143 2.94686 2.4
      vertex -0.927051 2.85317 10.4
      vertex -0.562143 2.94686 10.4
    endloop
  endfacet
  facet normal -0.248684 0.968585 0
    outer loop
      vertex -0.927051 2.85317 10.4
      vertex -0.562143 2.94686 2.4
      vertex -0.927051 2.85317 2.4
    endloop
  endfacet
  facet normal -0.844331 -0.535822 0
    outer loop
      vertex -2.42705 -1.76336 2.4
      vertex -2.62892 -1.44526 10.4
      vertex -2.62892 -1.44526 2.4
    endloop
  endfacet
  facet normal -0.844331 -0.535822 0
    outer loop
      vertex -2.62892 -1.44526 10.4
      vertex -2.42705 -1.76336 2.4
      vertex -2.42705 -1.76336 10.4
    endloop
  endfacet
  facet normal -0.368126 -0.929776 0
    outer loop
      vertex -1.27734 -2.71448 2.4
      vertex -0.927051 -2.85317 10.4
      vertex -1.27734 -2.71448 10.4
    endloop
  endfacet
  facet normal -0.368126 -0.929776 -0
    outer loop
      vertex -0.927051 -2.85317 10.4
      vertex -1.27734 -2.71448 2.4
      vertex -0.927051 -2.85317 2.4
    endloop
  endfacet
  facet normal 0 1 -0
    outer loop
      vertex 0.188371 2.99408 2.4
      vertex -0.188371 2.99408 10.4
      vertex 0.188371 2.99408 10.4
    endloop
  endfacet
  facet normal 0 1 0
    outer loop
      vertex -0.188371 2.99408 10.4
      vertex 0.188371 2.99408 2.4
      vertex -0.188371 2.99408 2.4
    endloop
  endfacet
  facet normal -0.998026 -0.0628015 0
    outer loop
      vertex -2.97634 -0.375999 2.4
      vertex -3 0 10.4
      vertex -3 0 2.4
    endloop
  endfacet
  facet normal -0.998026 -0.0628015 0
    outer loop
      vertex -3 0 10.4
      vertex -2.97634 -0.375999 2.4
      vertex -2.97634 -0.375999 10.4
    endloop
  endfacet
  facet normal -0.125337 0.992114 0
    outer loop
      vertex -0.188371 2.99408 2.4
      vertex -0.562143 2.94686 10.4
      vertex -0.188371 2.99408 10.4
    endloop
  endfacet
  facet normal -0.125337 0.992114 0
    outer loop
      vertex -0.562143 2.94686 10.4
      vertex -0.188371 2.99408 2.4
      vertex -0.562143 2.94686 2.4
    endloop
  endfacet
  facet normal 0 0 -1
    outer loop
      vertex 1.5 0 2.4
      vertex 3 0 2.4
      vertex 2.97634 -0.375999 2.4
    endloop
  endfacet
  facet normal 0 0 -1
    outer loop
      vertex 1.48817 -0.188 2.4
      vertex 2.97634 -0.375999 2.4
      vertex 2.90575 -0.746069 2.4
    endloop
  endfacet
  facet normal 0 0 -1
    outer loop
      vertex 3 0 2.4
      vertex 1.5 0 2.4
      vertex 2.97634 0.375999 2.4
    endloop
  endfacet
  facet normal 0 0 -1
    outer loop
      vertex 1.45287 -0.373034 2.4
      vertex 2.90575 -0.746069 2.4
      vertex 2.78933 -1.10437 2.4
    endloop
  endfacet
  facet normal 0 0 -1
    outer loop
      vertex 1.48817 0.188 2.4
      vertex 2.97634 0.375999 2.4
      vertex 1.5 0 2.4
    endloop
  endfacet
  facet normal 0 0 -1
    outer loop
      vertex 1.39466 -0.552186 2.4
      vertex 2.78933 -1.10437 2.4
      vertex 2.62892 -1.44526 2.4
    endloop
  endfacet
  facet normal -0 0 -1
    outer loop
      vertex 2.97634 0.375999 2.4
      vertex 1.48817 0.188 2.4
      vertex 2.90575 0.746069 2.4
    endloop
  endfacet
  facet normal 0 0 -1
    outer loop
      vertex 1.31446 -0.722631 2.4
      vertex 2.62892 -1.44526 2.4
      vertex 2.42705 -1.76336 2.4
    endloop
  endfacet
  facet normal 0 0 -1
    outer loop
      vertex 1.45287 0.373034 2.4
      vertex 2.90575 0.746069 2.4
      vertex 1.48817 0.188 2.4
    endloop
  endfacet
  facet normal 0 0 -1
    outer loop
      vertex 1.21352 -0.881678 2.4
      vertex 2.42705 -1.76336 2.4
      vertex 2.18691 -2.05364 2.4
    endloop
  endfacet
  facet normal -0 0 -1
    outer loop
      vertex 2.90575 0.746069 2.4
      vertex 1.45287 0.373034 2.4
      vertex 2.78933 1.10437 2.4
    endloop
  endfacet
  facet normal 0 0 -1
    outer loop
      vertex 1.09345 -1.02682 2.4
      vertex 2.18691 -2.05364 2.4
      vertex 1.91227 -2.31154 2.4
    endloop
  endfacet
  facet normal 0 0 -1
    outer loop
      vertex 1.39466 0.552186 2.4
      vertex 2.78933 1.10437 2.4
      vertex 1.45287 0.373034 2.4
    endloop
  endfacet
  facet normal 0 0 -1
    outer loop
      vertex 0.956136 -1.15577 2.4
      vertex 1.91227 -2.31154 2.4
      vertex 1.60748 -2.53298 2.4
    endloop
  endfacet
  facet normal -0 0 -1
    outer loop
      vertex 2.78933 1.10437 2.4
      vertex 1.39466 0.552186 2.4
      vertex 2.62892 1.44526 2.4
    endloop
  endfacet
  facet normal 0 0 -1
    outer loop
      vertex 1.31446 0.722631 2.4
      vertex 2.62892 1.44526 2.4
      vertex 1.39466 0.552186 2.4
    endloop
  endfacet
  facet normal 0 0 -1
    outer loop
      vertex 2.97634 -0.375999 2.4
      vertex 1.48817 -0.188 2.4
      vertex 1.5 0 2.4
    endloop
  endfacet
  facet normal 0 0 -1
    outer loop
      vertex 2.90575 -0.746069 2.4
      vertex 1.45287 -0.373034 2.4
      vertex 1.48817 -0.188 2.4
    endloop
  endfacet
  facet normal 0 0 -1
    outer loop
      vertex 2.78933 -1.10437 2.4
      vertex 1.39466 -0.552186 2.4
      vertex 1.45287 -0.373034 2.4
    endloop
  endfacet
  facet normal 0 0 -1
    outer loop
      vertex 2.62892 -1.44526 2.4
      vertex 1.31446 -0.722631 2.4
      vertex 1.39466 -0.552186 2.4
    endloop
  endfacet
  facet normal 0 0 -1
    outer loop
      vertex 0.80374 -1.26649 2.4
      vertex 1.60748 -2.53298 2.4
      vertex 1.27734 -2.71448 2.4
    endloop
  endfacet
  facet normal 0 0 -1
    outer loop
      vertex 2.42705 -1.76336 2.4
      vertex 1.21352 -0.881678 2.4
      vertex 1.31446 -0.722631 2.4
    endloop
  endfacet
  facet normal 0 0 -1
    outer loop
      vertex 2.18691 -2.05364 2.4
      vertex 1.09345 -1.02682 2.4
      vertex 1.21352 -0.881678 2.4
    endloop
  endfacet
  facet normal 0 0 -1
    outer loop
      vertex 1.91227 -2.31154 2.4
      vertex 0.956136 -1.15577 2.4
      vertex 1.09345 -1.02682 2.4
    endloop
  endfacet
  facet normal 0 0 -1
    outer loop
      vertex 0.638668 -1.35724 2.4
      vertex 1.27734 -2.71448 2.4
      vertex 0.927051 -2.85317 2.4
    endloop
  endfacet
  facet normal 0 0 -1
    outer loop
      vertex 1.60748 -2.53298 2.4
      vertex 0.80374 -1.26649 2.4
      vertex 0.956136 -1.15577 2.4
    endloop
  endfacet
  facet normal 0 0 -1
    outer loop
      vertex 1.27734 -2.71448 2.4
      vertex 0.638668 -1.35724 2.4
      vertex 0.80374 -1.26649 2.4
    endloop
  endfacet
  facet normal 0 0 -1
    outer loop
      vertex 0.463525 -1.42658 2.4
      vertex 0.927051 -2.85317 2.4
      vertex 0.562143 -2.94686 2.4
    endloop
  endfacet
  facet normal 0 0 -1
    outer loop
      vertex 0.927051 -2.85317 2.4
      vertex 0.463525 -1.42658 2.4
      vertex 0.638668 -1.35724 2.4
    endloop
  endfacet
  facet normal 0 0 -1
    outer loop
      vertex 0.562143 -2.94686 2.4
      vertex 0.281072 -1.47343 2.4
      vertex 0.463525 -1.42658 2.4
    endloop
  endfacet
  facet normal 0 0 -1
    outer loop
      vertex 0.188371 -2.99408 2.4
      vertex 0.281072 -1.47343 2.4
      vertex 0.562143 -2.94686 2.4
    endloop
  endfacet
  facet normal 0 0 -1
    outer loop
      vertex 0.188371 -2.99408 2.4
      vertex 0.0941849 -1.49704 2.4
      vertex 0.281072 -1.47343 2.4
    endloop
  endfacet
  facet normal 0 0 -1
    outer loop
      vertex 0.188371 -2.99408 2.4
      vertex -0.0941849 -1.49704 2.4
      vertex 0.0941849 -1.49704 2.4
    endloop
  endfacet
  facet normal 0 0 -1
    outer loop
      vertex -0.188371 -2.99408 2.4
      vertex -0.0941849 -1.49704 2.4
      vertex 0.188371 -2.99408 2.4
    endloop
  endfacet
  facet normal 0 0 -1
    outer loop
      vertex -0.188371 -2.99408 2.4
      vertex -0.281072 -1.47343 2.4
      vertex -0.0941849 -1.49704 2.4
    endloop
  endfacet
  facet normal 0 0 -1
    outer loop
      vertex -0.562143 -2.94686 2.4
      vertex -0.281072 -1.47343 2.4
      vertex -0.188371 -2.99408 2.4
    endloop
  endfacet
  facet normal -0 0 -1
    outer loop
      vertex -0.281072 -1.47343 2.4
      vertex -0.562143 -2.94686 2.4
      vertex -0.463525 -1.42658 2.4
    endloop
  endfacet
  facet normal 0 0 -1
    outer loop
      vertex -0.927051 -2.85317 2.4
      vertex -0.463525 -1.42658 2.4
      vertex -0.562143 -2.94686 2.4
    endloop
  endfacet
  facet normal -0 0 -1
    outer loop
      vertex -0.463525 -1.42658 2.4
      vertex -0.927051 -2.85317 2.4
      vertex -0.638668 -1.35724 2.4
    endloop
  endfacet
  facet normal 0 0 -1
    outer loop
      vertex -1.27734 -2.71448 2.4
      vertex -0.638668 -1.35724 2.4
      vertex -0.927051 -2.85317 2.4
    endloop
  endfacet
  facet normal -0 0 -1
    outer loop
      vertex -0.638668 -1.35724 2.4
      vertex -1.27734 -2.71448 2.4
      vertex -0.80374 -1.26649 2.4
    endloop
  endfacet
  facet normal 0 0 -1
    outer loop
      vertex -1.60748 -2.53298 2.4
      vertex -0.80374 -1.26649 2.4
      vertex -1.27734 -2.71448 2.4
    endloop
  endfacet
  facet normal -0 0 -1
    outer loop
      vertex -0.80374 -1.26649 2.4
      vertex -1.60748 -2.53298 2.4
      vertex -0.956136 -1.15577 2.4
    endloop
  endfacet
  facet normal 0 0 -1
    outer loop
      vertex -1.91227 -2.31154 2.4
      vertex -0.956136 -1.15577 2.4
      vertex -1.60748 -2.53298 2.4
    endloop
  endfacet
  facet normal -0 0 -1
    outer loop
      vertex -0.956136 -1.15577 2.4
      vertex -1.91227 -2.31154 2.4
      vertex -1.09345 -1.02682 2.4
    endloop
  endfacet
  facet normal 0 0 -1
    outer loop
      vertex -2.18691 -2.05364 2.4
      vertex -1.09345 -1.02682 2.4
      vertex -1.91227 -2.31154 2.4
    endloop
  endfacet
  facet normal -0 0 -1
    outer loop
      vertex -1.09345 -1.02682 2.4
      vertex -2.18691 -2.05364 2.4
      vertex -1.21352 -0.881678 2.4
    endloop
  endfacet
  facet normal 0 0 -1
    outer loop
      vertex -2.42705 -1.76336 2.4
      vertex -1.21352 -0.881678 2.4
      vertex -2.18691 -2.05364 2.4
    endloop
  endfacet
  facet normal 0 0 -1
    outer loop
      vertex -2.62892 -1.44526 2.4
      vertex -1.31446 -0.722631 2.4
      vertex -2.42705 -1.76336 2.4
    endloop
  endfacet
  facet normal -0 0 -1
    outer loop
      vertex -1.21352 -0.881678 2.4
      vertex -2.42705 -1.76336 2.4
      vertex -1.31446 -0.722631 2.4
    endloop
  endfacet
  facet normal -0 0 -1
    outer loop
      vertex 2.62892 1.44526 2.4
      vertex 1.31446 0.722631 2.4
      vertex 2.42705 1.76336 2.4
    endloop
  endfacet
  facet normal 0 0 -1
    outer loop
      vertex 1.21352 0.881678 2.4
      vertex 2.42705 1.76336 2.4
      vertex 1.31446 0.722631 2.4
    endloop
  endfacet
  facet normal -0 0 -1
    outer loop
      vertex 2.42705 1.76336 2.4
      vertex 1.21352 0.881678 2.4
      vertex 2.18691 2.05364 2.4
    endloop
  endfacet
  facet normal 0 0 -1
    outer loop
      vertex 1.09345 1.02682 2.4
      vertex 2.18691 2.05364 2.4
      vertex 1.21352 0.881678 2.4
    endloop
  endfacet
  facet normal -0 0 -1
    outer loop
      vertex 2.18691 2.05364 2.4
      vertex 1.09345 1.02682 2.4
      vertex 1.91227 2.31154 2.4
    endloop
  endfacet
  facet normal 0 0 -1
    outer loop
      vertex 0.956136 1.15577 2.4
      vertex 1.91227 2.31154 2.4
      vertex 1.09345 1.02682 2.4
    endloop
  endfacet
  facet normal -0 0 -1
    outer loop
      vertex 1.91227 2.31154 2.4
      vertex 0.956136 1.15577 2.4
      vertex 1.60748 2.53298 2.4
    endloop
  endfacet
  facet normal 0 0 -1
    outer loop
      vertex 0.80374 1.26649 2.4
      vertex 1.60748 2.53298 2.4
      vertex 0.956136 1.15577 2.4
    endloop
  endfacet
  facet normal -0 0 -1
    outer loop
      vertex 1.60748 2.53298 2.4
      vertex 0.80374 1.26649 2.4
      vertex 1.27734 2.71448 2.4
    endloop
  endfacet
  facet normal 0 0 -1
    outer loop
      vertex 0.638668 1.35724 2.4
      vertex 1.27734 2.71448 2.4
      vertex 0.80374 1.26649 2.4
    endloop
  endfacet
  facet normal -0 0 -1
    outer loop
      vertex 1.27734 2.71448 2.4
      vertex 0.638668 1.35724 2.4
      vertex 0.927051 2.85317 2.4
    endloop
  endfacet
  facet normal 0 0 -1
    outer loop
      vertex 0.463525 1.42658 2.4
      vertex 0.927051 2.85317 2.4
      vertex 0.638668 1.35724 2.4
    endloop
  endfacet
  facet normal -0 0 -1
    outer loop
      vertex 0.927051 2.85317 2.4
      vertex 0.463525 1.42658 2.4
      vertex 0.562143 2.94686 2.4
    endloop
  endfacet
  facet normal 0 0 -1
    outer loop
      vertex 0.281072 1.47343 2.4
      vertex 0.562143 2.94686 2.4
      vertex 0.463525 1.42658 2.4
    endloop
  endfacet
  facet normal 0 0 -1
    outer loop
      vertex 0.281072 1.47343 2.4
      vertex 0.188371 2.99408 2.4
      vertex 0.562143 2.94686 2.4
    endloop
  endfacet
  facet normal 0 0 -1
    outer loop
      vertex 0.0941849 1.49704 2.4
      vertex 0.188371 2.99408 2.4
      vertex 0.281072 1.47343 2.4
    endloop
  endfacet
  facet normal 0 0 -1
    outer loop
      vertex -0.0941849 1.49704 2.4
      vertex 0.188371 2.99408 2.4
      vertex 0.0941849 1.49704 2.4
    endloop
  endfacet
  facet normal 0 0 -1
    outer loop
      vertex -0.0941849 1.49704 2.4
      vertex -0.188371 2.99408 2.4
      vertex 0.188371 2.99408 2.4
    endloop
  endfacet
  facet normal 0 0 -1
    outer loop
      vertex -0.281072 1.47343 2.4
      vertex -0.188371 2.99408 2.4
      vertex -0.0941849 1.49704 2.4
    endloop
  endfacet
  facet normal 0 0 -1
    outer loop
      vertex -0.562143 2.94686 2.4
      vertex -0.281072 1.47343 2.4
      vertex -0.463525 1.42658 2.4
    endloop
  endfacet
  facet normal 0 0 -1
    outer loop
      vertex -0.281072 1.47343 2.4
      vertex -0.562143 2.94686 2.4
      vertex -0.188371 2.99408 2.4
    endloop
  endfacet
  facet normal 0 0 -1
    outer loop
      vertex -0.927051 2.85317 2.4
      vertex -0.463525 1.42658 2.4
      vertex -0.638668 1.35724 2.4
    endloop
  endfacet
  facet normal 0 0 -1
    outer loop
      vertex -1.27734 2.71448 2.4
      vertex -0.638668 1.35724 2.4
      vertex -0.80374 1.26649 2.4
    endloop
  endfacet
  facet normal 0 0 -1
    outer loop
      vertex -0.463525 1.42658 2.4
      vertex -0.927051 2.85317 2.4
      vertex -0.562143 2.94686 2.4
    endloop
  endfacet
  facet normal 0 0 -1
    outer loop
      vertex -1.60748 2.53298 2.4
      vertex -0.80374 1.26649 2.4
      vertex -0.956136 1.15577 2.4
    endloop
  endfacet
  facet normal 0 0 -1
    outer loop
      vertex -1.91227 2.31154 2.4
      vertex -0.956136 1.15577 2.4
      vertex -1.09345 1.02682 2.4
    endloop
  endfacet
  facet normal 0 0 -1
    outer loop
      vertex -2.18691 2.05364 2.4
      vertex -1.09345 1.02682 2.4
      vertex -1.21352 0.881678 2.4
    endloop
  endfacet
  facet normal 0 0 -1
    outer loop
      vertex -0.638668 1.35724 2.4
      vertex -1.27734 2.71448 2.4
      vertex -0.927051 2.85317 2.4
    endloop
  endfacet
  facet normal 0 0 -1
    outer loop
      vertex -2.42705 1.76336 2.4
      vertex -1.21352 0.881678 2.4
      vertex -1.31446 0.722631 2.4
    endloop
  endfacet
  facet normal 0 0 -1
    outer loop
      vertex -2.62892 1.44526 2.4
      vertex -1.31446 0.722631 2.4
      vertex -1.39466 0.552186 2.4
    endloop
  endfacet
  facet normal 0 0 -1
    outer loop
      vertex -2.78933 1.10437 2.4
      vertex -1.39466 0.552186 2.4
      vertex -1.45287 0.373034 2.4
    endloop
  endfacet
  facet normal 0 0 -1
    outer loop
      vertex -2.90575 0.746069 2.4
      vertex -1.45287 0.373034 2.4
      vertex -1.48817 0.188 2.4
    endloop
  endfacet
  facet normal 0 0 -1
    outer loop
      vertex -0.80374 1.26649 2.4
      vertex -1.60748 2.53298 2.4
      vertex -1.27734 2.71448 2.4
    endloop
  endfacet
  facet normal 0 0 -1
    outer loop
      vertex -2.97634 0.375999 2.4
      vertex -1.48817 0.188 2.4
      vertex -1.5 0 2.4
    endloop
  endfacet
  facet normal -0 0 -1
    outer loop
      vertex -1.31446 -0.722631 2.4
      vertex -2.62892 -1.44526 2.4
      vertex -1.39466 -0.552186 2.4
    endloop
  endfacet
  facet normal 0 0 -1
    outer loop
      vertex -2.78933 -1.10437 2.4
      vertex -1.39466 -0.552186 2.4
      vertex -2.62892 -1.44526 2.4
    endloop
  endfacet
  facet normal 0 0 -1
    outer loop
      vertex -0.956136 1.15577 2.4
      vertex -1.91227 2.31154 2.4
      vertex -1.60748 2.53298 2.4
    endloop
  endfacet
  facet normal -0 0 -1
    outer loop
      vertex -1.39466 -0.552186 2.4
      vertex -2.78933 -1.10437 2.4
      vertex -1.45287 -0.373034 2.4
    endloop
  endfacet
  facet normal 0 0 -1
    outer loop
      vertex -1.09345 1.02682 2.4
      vertex -2.18691 2.05364 2.4
      vertex -1.91227 2.31154 2.4
    endloop
  endfacet
  facet normal 0 0 -1
    outer loop
      vertex -2.90575 -0.746069 2.4
      vertex -1.45287 -0.373034 2.4
      vertex -2.78933 -1.10437 2.4
    endloop
  endfacet
  facet normal 0 0 -1
    outer loop
      vertex -1.21352 0.881678 2.4
      vertex -2.42705 1.76336 2.4
      vertex -2.18691 2.05364 2.4
    endloop
  endfacet
  facet normal -0 0 -1
    outer loop
      vertex -1.45287 -0.373034 2.4
      vertex -2.90575 -0.746069 2.4
      vertex -1.48817 -0.188 2.4
    endloop
  endfacet
  facet normal 0 0 -1
    outer loop
      vertex -1.31446 0.722631 2.4
      vertex -2.62892 1.44526 2.4
      vertex -2.42705 1.76336 2.4
    endloop
  endfacet
  facet normal 0 0 -1
    outer loop
      vertex -2.97634 -0.375999 2.4
      vertex -1.48817 -0.188 2.4
      vertex -2.90575 -0.746069 2.4
    endloop
  endfacet
  facet normal 0 0 -1
    outer loop
      vertex -1.39466 0.552186 2.4
      vertex -2.78933 1.10437 2.4
      vertex -2.62892 1.44526 2.4
    endloop
  endfacet
  facet normal -0 0 -1
    outer loop
      vertex -1.48817 -0.188 2.4
      vertex -2.97634 -0.375999 2.4
      vertex -1.5 0 2.4
    endloop
  endfacet
  facet normal 0 0 -1
    outer loop
      vertex -1.45287 0.373034 2.4
      vertex -2.90575 0.746069 2.4
      vertex -2.78933 1.10437 2.4
    endloop
  endfacet
  facet normal 0 0 -1
    outer loop
      vertex -3 0 2.4
      vertex -1.5 0 2.4
      vertex -2.97634 -0.375999 2.4
    endloop
  endfacet
  facet normal 0 0 -1
    outer loop
      vertex -1.48817 0.188 2.4
      vertex -2.97634 0.375999 2.4
      vertex -2.90575 0.746069 2.4
    endloop
  endfacet
  facet normal 0 0 -1
    outer loop
      vertex -1.5 0 2.4
      vertex -3 0 2.4
      vertex -2.97634 0.375999 2.4
    endloop
  endfacet
  facet normal -0.481762 -0.876302 0
    outer loop
      vertex -1.60748 -2.53298 2.4
      vertex -1.27734 -2.71448 10.4
      vertex -1.60748 -2.53298 10.4
    endloop
  endfacet
  facet normal -0.481762 -0.876302 -0
    outer loop
      vertex -1.27734 -2.71448 10.4
      vertex -1.60748 -2.53298 2.4
      vertex -1.27734 -2.71448 2.4
    endloop
  endfacet
  facet normal -0.844331 0.535822 0
    outer loop
      vertex -2.62892 1.44526 2.4
      vertex -2.42705 1.76336 10.4
      vertex -2.42705 1.76336 2.4
    endloop
  endfacet
  facet normal -0.844331 0.535822 0
    outer loop
      vertex -2.42705 1.76336 10.4
      vertex -2.62892 1.44526 2.4
      vertex -2.62892 1.44526 10.4
    endloop
  endfacet
  facet normal -0.951056 -0.309019 0
    outer loop
      vertex -2.78933 -1.10437 2.4
      vertex -2.90575 -0.746069 10.4
      vertex -2.90575 -0.746069 2.4
    endloop
  endfacet
  facet normal -0.951056 -0.309019 0
    outer loop
      vertex -2.90575 -0.746069 10.4
      vertex -2.78933 -1.10437 2.4
      vertex -2.78933 -1.10437 10.4
    endloop
  endfacet
  facet normal 0.770514 -0.637423 0
    outer loop
      vertex 2.18691 -2.05364 10.4
      vertex 2.42705 -1.76336 2.4
      vertex 2.42705 -1.76336 10.4
    endloop
  endfacet
  facet normal 0.770514 -0.637423 0
    outer loop
      vertex 2.42705 -1.76336 2.4
      vertex 2.18691 -2.05364 10.4
      vertex 2.18691 -2.05364 2.4
    endloop
  endfacet
  facet normal 0 0 1
    outer loop
      vertex 1.5 0 10.4
      vertex 3 0 10.4
      vertex 2.97634 0.375999 10.4
    endloop
  endfacet
  facet normal 0 0 1
    outer loop
      vertex 1.48817 0.188 10.4
      vertex 2.97634 0.375999 10.4
      vertex 2.90575 0.746069 10.4
    endloop
  endfacet
  facet normal 0 0 1
    outer loop
      vertex 3 0 10.4
      vertex 1.5 0 10.4
      vertex 2.97634 -0.375999 10.4
    endloop
  endfacet
  facet normal 0 0 1
    outer loop
      vertex 1.45287 0.373034 10.4
      vertex 2.90575 0.746069 10.4
      vertex 2.78933 1.10437 10.4
    endloop
  endfacet
  facet normal -0 0 1
    outer loop
      vertex 1.48817 -0.188 10.4
      vertex 2.97634 -0.375999 10.4
      vertex 1.5 0 10.4
    endloop
  endfacet
  facet normal 0 0 1
    outer loop
      vertex 1.39466 0.552186 10.4
      vertex 2.78933 1.10437 10.4
      vertex 2.62892 1.44526 10.4
    endloop
  endfacet
  facet normal 0 0 1
    outer loop
      vertex 2.97634 -0.375999 10.4
      vertex 1.48817 -0.188 10.4
      vertex 2.90575 -0.746069 10.4
    endloop
  endfacet
  facet normal 0 0 1
    outer loop
      vertex 1.31446 0.722631 10.4
      vertex 2.62892 1.44526 10.4
      vertex 2.42705 1.76336 10.4
    endloop
  endfacet
  facet normal -0 0 1
    outer loop
      vertex 1.45287 -0.373034 10.4
      vertex 2.90575 -0.746069 10.4
      vertex 1.48817 -0.188 10.4
    endloop
  endfacet
  facet normal 0 0 1
    outer loop
      vertex 1.21352 0.881678 10.4
      vertex 2.42705 1.76336 10.4
      vertex 2.18691 2.05364 10.4
    endloop
  endfacet
  facet normal 0 0 1
    outer loop
      vertex 2.90575 -0.746069 10.4
      vertex 1.45287 -0.373034 10.4
      vertex 2.78933 -1.10437 10.4
    endloop
  endfacet
  facet normal 0 0 1
    outer loop
      vertex 1.09345 1.02682 10.4
      vertex 2.18691 2.05364 10.4
      vertex 1.91227 2.31154 10.4
    endloop
  endfacet
  facet normal -0 0 1
    outer loop
      vertex 1.39466 -0.552186 10.4
      vertex 2.78933 -1.10437 10.4
      vertex 1.45287 -0.373034 10.4
    endloop
  endfacet
  facet normal 0 0 1
    outer loop
      vertex 0.956136 1.15577 10.4
      vertex 1.91227 2.31154 10.4
      vertex 1.60748 2.53298 10.4
    endloop
  endfacet
  facet normal 0 0 1
    outer loop
      vertex 2.78933 -1.10437 10.4
      vertex 1.39466 -0.552186 10.4
      vertex 2.62892 -1.44526 10.4
    endloop
  endfacet
  facet normal -0 0 1
    outer loop
      vertex 1.31446 -0.722631 10.4
      vertex 2.62892 -1.44526 10.4
      vertex 1.39466 -0.552186 10.4
    endloop
  endfacet
  facet normal 0 0 1
    outer loop
      vertex 2.97634 0.375999 10.4
      vertex 1.48817 0.188 10.4
      vertex 1.5 0 10.4
    endloop
  endfacet
  facet normal 0 0 1
    outer loop
      vertex 2.90575 0.746069 10.4
      vertex 1.45287 0.373034 10.4
      vertex 1.48817 0.188 10.4
    endloop
  endfacet
  facet normal 0 0 1
    outer loop
      vertex 2.78933 1.10437 10.4
      vertex 1.39466 0.552186 10.4
      vertex 1.45287 0.373034 10.4
    endloop
  endfacet
  facet normal 0 0 1
    outer loop
      vertex 2.62892 1.44526 10.4
      vertex 1.31446 0.722631 10.4
      vertex 1.39466 0.552186 10.4
    endloop
  endfacet
  facet normal 0 0 1
    outer loop
      vertex 0.80374 1.26649 10.4
      vertex 1.60748 2.53298 10.4
      vertex 1.27734 2.71448 10.4
    endloop
  endfacet
  facet normal 0 0 1
    outer loop
      vertex 2.42705 1.76336 10.4
      vertex 1.21352 0.881678 10.4
      vertex 1.31446 0.722631 10.4
    endloop
  endfacet
  facet normal 0 0 1
    outer loop
      vertex 2.18691 2.05364 10.4
      vertex 1.09345 1.02682 10.4
      vertex 1.21352 0.881678 10.4
    endloop
  endfacet
  facet normal 0 0 1
    outer loop
      vertex 1.91227 2.31154 10.4
      vertex 0.956136 1.15577 10.4
      vertex 1.09345 1.02682 10.4
    endloop
  endfacet
  facet normal 0 0 1
    outer loop
      vertex 0.638668 1.35724 10.4
      vertex 1.27734 2.71448 10.4
      vertex 0.927051 2.85317 10.4
    endloop
  endfacet
  facet normal 0 0 1
    outer loop
      vertex 1.60748 2.53298 10.4
      vertex 0.80374 1.26649 10.4
      vertex 0.956136 1.15577 10.4
    endloop
  endfacet
  facet normal 0 0 1
    outer loop
      vertex 1.27734 2.71448 10.4
      vertex 0.638668 1.35724 10.4
      vertex 0.80374 1.26649 10.4
    endloop
  endfacet
  facet normal 0 0 1
    outer loop
      vertex 0.463525 1.42658 10.4
      vertex 0.927051 2.85317 10.4
      vertex 0.562143 2.94686 10.4
    endloop
  endfacet
  facet normal 0 0 1
    outer loop
      vertex 0.927051 2.85317 10.4
      vertex 0.463525 1.42658 10.4
      vertex 0.638668 1.35724 10.4
    endloop
  endfacet
  facet normal 0 0 1
    outer loop
      vertex 0.562143 2.94686 10.4
      vertex 0.281072 1.47343 10.4
      vertex 0.463525 1.42658 10.4
    endloop
  endfacet
  facet normal 0 0 1
    outer loop
      vertex 0.188371 2.99408 10.4
      vertex 0.281072 1.47343 10.4
      vertex 0.562143 2.94686 10.4
    endloop
  endfacet
  facet normal 0 0 1
    outer loop
      vertex 0.188371 2.99408 10.4
      vertex 0.0941849 1.49704 10.4
      vertex 0.281072 1.47343 10.4
    endloop
  endfacet
  facet normal 0 0 1
    outer loop
      vertex 0.188371 2.99408 10.4
      vertex -0.0941849 1.49704 10.4
      vertex 0.0941849 1.49704 10.4
    endloop
  endfacet
  facet normal -0 0 1
    outer loop
      vertex -0.188371 2.99408 10.4
      vertex -0.0941849 1.49704 10.4
      vertex 0.188371 2.99408 10.4
    endloop
  endfacet
  facet normal 0 0 1
    outer loop
      vertex -0.188371 2.99408 10.4
      vertex -0.281072 1.47343 10.4
      vertex -0.0941849 1.49704 10.4
    endloop
  endfacet
  facet normal -0 0 1
    outer loop
      vertex -0.562143 2.94686 10.4
      vertex -0.281072 1.47343 10.4
      vertex -0.188371 2.99408 10.4
    endloop
  endfacet
  facet normal 0 0 1
    outer loop
      vertex -0.281072 1.47343 10.4
      vertex -0.562143 2.94686 10.4
      vertex -0.463525 1.42658 10.4
    endloop
  endfacet
  facet normal -0 0 1
    outer loop
      vertex -0.927051 2.85317 10.4
      vertex -0.463525 1.42658 10.4
      vertex -0.562143 2.94686 10.4
    endloop
  endfacet
  facet normal 0 0 1
    outer loop
      vertex -0.463525 1.42658 10.4
      vertex -0.927051 2.85317 10.4
      vertex -0.638668 1.35724 10.4
    endloop
  endfacet
  facet normal -0 0 1
    outer loop
      vertex -1.27734 2.71448 10.4
      vertex -0.638668 1.35724 10.4
      vertex -0.927051 2.85317 10.4
    endloop
  endfacet
  facet normal 0 0 1
    outer loop
      vertex -0.638668 1.35724 10.4
      vertex -1.27734 2.71448 10.4
      vertex -0.80374 1.26649 10.4
    endloop
  endfacet
  facet normal -0 0 1
    outer loop
      vertex -1.60748 2.53298 10.4
      vertex -0.80374 1.26649 10.4
      vertex -1.27734 2.71448 10.4
    endloop
  endfacet
  facet normal 0 0 1
    outer loop
      vertex -0.80374 1.26649 10.4
      vertex -1.60748 2.53298 10.4
      vertex -0.956136 1.15577 10.4
    endloop
  endfacet
  facet normal -0 0 1
    outer loop
      vertex -1.91227 2.31154 10.4
      vertex -0.956136 1.15577 10.4
      vertex -1.60748 2.53298 10.4
    endloop
  endfacet
  facet normal 0 0 1
    outer loop
      vertex -0.956136 1.15577 10.4
      vertex -1.91227 2.31154 10.4
      vertex -1.09345 1.02682 10.4
    endloop
  endfacet
  facet normal -0 0 1
    outer loop
      vertex -2.18691 2.05364 10.4
      vertex -1.09345 1.02682 10.4
      vertex -1.91227 2.31154 10.4
    endloop
  endfacet
  facet normal 0 0 1
    outer loop
      vertex -1.09345 1.02682 10.4
      vertex -2.18691 2.05364 10.4
      vertex -1.21352 0.881678 10.4
    endloop
  endfacet
  facet normal -0 0 1
    outer loop
      vertex -2.42705 1.76336 10.4
      vertex -1.21352 0.881678 10.4
      vertex -2.18691 2.05364 10.4
    endloop
  endfacet
  facet normal -0 0 1
    outer loop
      vertex -2.62892 1.44526 10.4
      vertex -1.31446 0.722631 10.4
      vertex -2.42705 1.76336 10.4
    endloop
  endfacet
  facet normal 0 0 1
    outer loop
      vertex -1.21352 0.881678 10.4
      vertex -2.42705 1.76336 10.4
      vertex -1.31446 0.722631 10.4
    endloop
  endfacet
  facet normal 0 0 1
    outer loop
      vertex 2.62892 -1.44526 10.4
      vertex 1.31446 -0.722631 10.4
      vertex 2.42705 -1.76336 10.4
    endloop
  endfacet
  facet normal -0 0 1
    outer loop
      vertex 1.21352 -0.881678 10.4
      vertex 2.42705 -1.76336 10.4
      vertex 1.31446 -0.722631 10.4
    endloop
  endfacet
  facet normal 0 0 1
    outer loop
      vertex 2.42705 -1.76336 10.4
      vertex 1.21352 -0.881678 10.4
      vertex 2.18691 -2.05364 10.4
    endloop
  endfacet
  facet normal -0 0 1
    outer loop
      vertex 1.09345 -1.02682 10.4
      vertex 2.18691 -2.05364 10.4
      vertex 1.21352 -0.881678 10.4
    endloop
  endfacet
  facet normal 0 0 1
    outer loop
      vertex 2.18691 -2.05364 10.4
      vertex 1.09345 -1.02682 10.4
      vertex 1.91227 -2.31154 10.4
    endloop
  endfacet
  facet normal -0 0 1
    outer loop
      vertex 0.956136 -1.15577 10.4
      vertex 1.91227 -2.31154 10.4
      vertex 1.09345 -1.02682 10.4
    endloop
  endfacet
  facet normal 0 0 1
    outer loop
      vertex 1.91227 -2.31154 10.4
      vertex 0.956136 -1.15577 10.4
      vertex 1.60748 -2.53298 10.4
    endloop
  endfacet
  facet normal -0 0 1
    outer loop
      vertex 0.80374 -1.26649 10.4
      vertex 1.60748 -2.53298 10.4
      vertex 0.956136 -1.15577 10.4
    endloop
  endfacet
  facet normal 0 0 1
    outer loop
      vertex 1.60748 -2.53298 10.4
      vertex 0.80374 -1.26649 10.4
      vertex 1.27734 -2.71448 10.4
    endloop
  endfacet
  facet normal -0 0 1
    outer loop
      vertex 0.638668 -1.35724 10.4
      vertex 1.27734 -2.71448 10.4
      vertex 0.80374 -1.26649 10.4
    endloop
  endfacet
  facet normal 0 0 1
    outer loop
      vertex 1.27734 -2.71448 10.4
      vertex 0.638668 -1.35724 10.4
      vertex 0.927051 -2.85317 10.4
    endloop
  endfacet
  facet normal -0 0 1
    outer loop
      vertex 0.463525 -1.42658 10.4
      vertex 0.927051 -2.85317 10.4
      vertex 0.638668 -1.35724 10.4
    endloop
  endfacet
  facet normal 0 0 1
    outer loop
      vertex 0.927051 -2.85317 10.4
      vertex 0.463525 -1.42658 10.4
      vertex 0.562143 -2.94686 10.4
    endloop
  endfacet
  facet normal -0 0 1
    outer loop
      vertex 0.281072 -1.47343 10.4
      vertex 0.562143 -2.94686 10.4
      vertex 0.463525 -1.42658 10.4
    endloop
  endfacet
  facet normal 0 0 1
    outer loop
      vertex 0.281072 -1.47343 10.4
      vertex 0.188371 -2.99408 10.4
      vertex 0.562143 -2.94686 10.4
    endloop
  endfacet
  facet normal -0 0 1
    outer loop
      vertex 0.0941849 -1.49704 10.4
      vertex 0.188371 -2.99408 10.4
      vertex 0.281072 -1.47343 10.4
    endloop
  endfacet
  facet normal -0 0 1
    outer loop
      vertex -0.0941849 -1.49704 10.4
      vertex 0.188371 -2.99408 10.4
      vertex 0.0941849 -1.49704 10.4
    endloop
  endfacet
  facet normal 0 0 1
    outer loop
      vertex -0.0941849 -1.49704 10.4
      vertex -0.188371 -2.99408 10.4
      vertex 0.188371 -2.99408 10.4
    endloop
  endfacet
  facet normal 0 0 1
    outer loop
      vertex -0.281072 -1.47343 10.4
      vertex -0.188371 -2.99408 10.4
      vertex -0.0941849 -1.49704 10.4
    endloop
  endfacet
  facet normal 0 0 1
    outer loop
      vertex -0.562143 -2.94686 10.4
      vertex -0.281072 -1.47343 10.4
      vertex -0.463525 -1.42658 10.4
    endloop
  endfacet
  facet normal 0 0 1
    outer loop
      vertex -0.281072 -1.47343 10.4
      vertex -0.562143 -2.94686 10.4
      vertex -0.188371 -2.99408 10.4
    endloop
  endfacet
  facet normal 0 0 1
    outer loop
      vertex -0.927051 -2.85317 10.4
      vertex -0.463525 -1.42658 10.4
      vertex -0.638668 -1.35724 10.4
    endloop
  endfacet
  facet normal 0 0 1
    outer loop
      vertex -1.27734 -2.71448 10.4
      vertex -0.638668 -1.35724 10.4
      vertex -0.80374 -1.26649 10.4
    endloop
  endfacet
  facet normal 0 0 1
    outer loop
      vertex -0.463525 -1.42658 10.4
      vertex -0.927051 -2.85317 10.4
      vertex -0.562143 -2.94686 10.4
    endloop
  endfacet
  facet normal 0 0 1
    outer loop
      vertex -1.60748 -2.53298 10.4
      vertex -0.80374 -1.26649 10.4
      vertex -0.956136 -1.15577 10.4
    endloop
  endfacet
  facet normal 0 0 1
    outer loop
      vertex -1.91227 -2.31154 10.4
      vertex -0.956136 -1.15577 10.4
      vertex -1.09345 -1.02682 10.4
    endloop
  endfacet
  facet normal 0 0 1
    outer loop
      vertex -2.18691 -2.05364 10.4
      vertex -1.09345 -1.02682 10.4
      vertex -1.21352 -0.881678 10.4
    endloop
  endfacet
  facet normal 0 0 1
    outer loop
      vertex -0.638668 -1.35724 10.4
      vertex -1.27734 -2.71448 10.4
      vertex -0.927051 -2.85317 10.4
    endloop
  endfacet
  facet normal 0 0 1
    outer loop
      vertex -2.42705 -1.76336 10.4
      vertex -1.21352 -0.881678 10.4
      vertex -1.31446 -0.722631 10.4
    endloop
  endfacet
  facet normal 0 0 1
    outer loop
      vertex -2.62892 -1.44526 10.4
      vertex -1.31446 -0.722631 10.4
      vertex -1.39466 -0.552186 10.4
    endloop
  endfacet
  facet normal 0 0 1
    outer loop
      vertex -2.78933 -1.10437 10.4
      vertex -1.39466 -0.552186 10.4
      vertex -1.45287 -0.373034 10.4
    endloop
  endfacet
  facet normal 0 0 1
    outer loop
      vertex -2.90575 -0.746069 10.4
      vertex -1.45287 -0.373034 10.4
      vertex -1.48817 -0.188 10.4
    endloop
  endfacet
  facet normal 0 0 1
    outer loop
      vertex -0.80374 -1.26649 10.4
      vertex -1.60748 -2.53298 10.4
      vertex -1.27734 -2.71448 10.4
    endloop
  endfacet
  facet normal 0 0 1
    outer loop
      vertex -2.97634 -0.375999 10.4
      vertex -1.48817 -0.188 10.4
      vertex -1.5 0 10.4
    endloop
  endfacet
  facet normal 0 0 1
    outer loop
      vertex -1.31446 0.722631 10.4
      vertex -2.62892 1.44526 10.4
      vertex -1.39466 0.552186 10.4
    endloop
  endfacet
  facet normal -0 0 1
    outer loop
      vertex -2.78933 1.10437 10.4
      vertex -1.39466 0.552186 10.4
      vertex -2.62892 1.44526 10.4
    endloop
  endfacet
  facet normal 0 0 1
    outer loop
      vertex -0.956136 -1.15577 10.4
      vertex -1.91227 -2.31154 10.4
      vertex -1.60748 -2.53298 10.4
    endloop
  endfacet
  facet normal 0 0 1
    outer loop
      vertex -1.39466 0.552186 10.4
      vertex -2.78933 1.10437 10.4
      vertex -1.45287 0.373034 10.4
    endloop
  endfacet
  facet normal 0 0 1
    outer loop
      vertex -1.09345 -1.02682 10.4
      vertex -2.18691 -2.05364 10.4
      vertex -1.91227 -2.31154 10.4
    endloop
  endfacet
  facet normal -0 0 1
    outer loop
      vertex -2.90575 0.746069 10.4
      vertex -1.45287 0.373034 10.4
      vertex -2.78933 1.10437 10.4
    endloop
  endfacet
  facet normal 0 0 1
    outer loop
      vertex -1.21352 -0.881678 10.4
      vertex -2.42705 -1.76336 10.4
      vertex -2.18691 -2.05364 10.4
    endloop
  endfacet
  facet normal 0 0 1
    outer loop
      vertex -1.45287 0.373034 10.4
      vertex -2.90575 0.746069 10.4
      vertex -1.48817 0.188 10.4
    endloop
  endfacet
  facet normal 0 0 1
    outer loop
      vertex -1.31446 -0.722631 10.4
      vertex -2.62892 -1.44526 10.4
      vertex -2.42705 -1.76336 10.4
    endloop
  endfacet
  facet normal -0 0 1
    outer loop
      vertex -2.97634 0.375999 10.4
      vertex -1.48817 0.188 10.4
      vertex -2.90575 0.746069 10.4
    endloop
  endfacet
  facet normal 0 0 1
    outer loop
      vertex -1.39466 -0.552186 10.4
      vertex -2.78933 -1.10437 10.4
      vertex -2.62892 -1.44526 10.4
    endloop
  endfacet
  facet normal 0 0 1
    outer loop
      vertex -1.48817 0.188 10.4
      vertex -2.97634 0.375999 10.4
      vertex -1.5 0 10.4
    endloop
  endfacet
  facet normal 0 0 1
    outer loop
      vertex -1.45287 -0.373034 10.4
      vertex -2.90575 -0.746069 10.4
      vertex -2.78933 -1.10437 10.4
    endloop
  endfacet
  facet normal 0 0 1
    outer loop
      vertex -3 0 10.4
      vertex -1.5 0 10.4
      vertex -2.97634 0.375999 10.4
    endloop
  endfacet
  facet normal 0 0 1
    outer loop
      vertex -1.48817 -0.188 10.4
      vertex -2.97634 -0.375999 10.4
      vertex -2.90575 -0.746069 10.4
    endloop
  endfacet
  facet normal 0 0 1
    outer loop
      vertex -1.5 0 10.4
      vertex -3 0 10.4
      vertex -2.97634 -0.375999 10.4
    endloop
  endfacet
  facet normal -0.982284 -0.187396 0
    outer loop
      vertex 1.48817 0.188 2.4
      vertex 1.45287 0.373034 10.4
      vertex 1.45287 0.373034 2.4
    endloop
  endfacet
  facet normal -0.982284 -0.187396 0
    outer loop
      vertex 1.45287 0.373034 10.4
      vertex 1.48817 0.188 2.4
      vertex 1.48817 0.188 10.4
    endloop
  endfacet
  facet normal -0.998026 -0.0628013 0
    outer loop
      vertex 1.5 0 2.4
      vertex 1.48817 0.188 10.4
      vertex 1.48817 0.188 2.4
    endloop
  endfacet
  facet normal -0.998026 -0.0628013 0
    outer loop
      vertex 1.48817 0.188 10.4
      vertex 1.5 0 2.4
      vertex 1.5 0 10.4
    endloop
  endfacet
  facet normal -0.904838 -0.425756 0
    outer loop
      vertex 1.39466 0.552186 2.4
      vertex 1.31446 0.722631 10.4
      vertex 1.31446 0.722631 2.4
    endloop
  endfacet
  facet normal -0.904838 -0.425756 0
    outer loop
      vertex 1.31446 0.722631 10.4
      vertex 1.39466 0.552186 2.4
      vertex 1.39466 0.552186 10.4
    endloop
  endfacet
  facet normal -0.684557 -0.728959 0
    outer loop
      vertex 0.956136 1.15577 2.4
      vertex 1.09345 1.02682 10.4
      vertex 0.956136 1.15577 10.4
    endloop
  endfacet
  facet normal -0.684557 -0.728959 -0
    outer loop
      vertex 1.09345 1.02682 10.4
      vertex 0.956136 1.15577 2.4
      vertex 1.09345 1.02682 2.4
    endloop
  endfacet
  facet normal -0.24871 -0.968578 0
    outer loop
      vertex 0.281072 1.47343 2.4
      vertex 0.463525 1.42658 10.4
      vertex 0.281072 1.47343 10.4
    endloop
  endfacet
  facet normal -0.24871 -0.968578 -0
    outer loop
      vertex 0.463525 1.42658 10.4
      vertex 0.281072 1.47343 2.4
      vertex 0.463525 1.42658 2.4
    endloop
  endfacet
  facet normal -0.998026 0.0628013 0
    outer loop
      vertex 1.48817 -0.188 2.4
      vertex 1.5 0 10.4
      vertex 1.5 0 2.4
    endloop
  endfacet
  facet normal -0.998026 0.0628013 0
    outer loop
      vertex 1.5 0 10.4
      vertex 1.48817 -0.188 2.4
      vertex 1.48817 -0.188 10.4
    endloop
  endfacet
  facet normal -0.904838 0.425756 0
    outer loop
      vertex 1.31446 -0.722631 2.4
      vertex 1.39466 -0.552186 10.4
      vertex 1.39466 -0.552186 2.4
    endloop
  endfacet
  facet normal -0.904838 0.425756 0
    outer loop
      vertex 1.39466 -0.552186 10.4
      vertex 1.31446 -0.722631 2.4
      vertex 1.31446 -0.722631 10.4
    endloop
  endfacet
  facet normal 0.587778 0.809022 -0
    outer loop
      vertex -0.80374 -1.26649 2.4
      vertex -0.956136 -1.15577 10.4
      vertex -0.80374 -1.26649 10.4
    endloop
  endfacet
  facet normal 0.587778 0.809022 0
    outer loop
      vertex -0.956136 -1.15577 10.4
      vertex -0.80374 -1.26649 2.4
      vertex -0.956136 -1.15577 2.4
    endloop
  endfacet
  facet normal -0.368106 0.929784 0
    outer loop
      vertex 0.638668 -1.35724 2.4
      vertex 0.463525 -1.42658 10.4
      vertex 0.638668 -1.35724 10.4
    endloop
  endfacet
  facet normal -0.368106 0.929784 0
    outer loop
      vertex 0.463525 -1.42658 10.4
      vertex 0.638668 -1.35724 2.4
      vertex 0.463525 -1.42658 2.4
    endloop
  endfacet
  facet normal 0.844314 0.535848 0
    outer loop
      vertex -1.21352 -0.881678 10.4
      vertex -1.31446 -0.722631 2.4
      vertex -1.31446 -0.722631 10.4
    endloop
  endfacet
  facet normal 0.844314 0.535848 0
    outer loop
      vertex -1.31446 -0.722631 2.4
      vertex -1.21352 -0.881678 10.4
      vertex -1.21352 -0.881678 2.4
    endloop
  endfacet
  facet normal -0.368106 -0.929784 0
    outer loop
      vertex 0.463525 1.42658 2.4
      vertex 0.638668 1.35724 10.4
      vertex 0.463525 1.42658 10.4
    endloop
  endfacet
  facet normal -0.368106 -0.929784 -0
    outer loop
      vertex 0.638668 1.35724 10.4
      vertex 0.463525 1.42658 2.4
      vertex 0.638668 1.35724 2.4
    endloop
  endfacet
  facet normal 0.481757 -0.876305 0
    outer loop
      vertex -0.80374 1.26649 2.4
      vertex -0.638668 1.35724 10.4
      vertex -0.80374 1.26649 10.4
    endloop
  endfacet
  facet normal 0.481757 -0.876305 0
    outer loop
      vertex -0.638668 1.35724 10.4
      vertex -0.80374 1.26649 2.4
      vertex -0.638668 1.35724 2.4
    endloop
  endfacet
  facet normal -0.951057 -0.309017 0
    outer loop
      vertex 1.45287 0.373034 2.4
      vertex 1.39466 0.552186 10.4
      vertex 1.39466 0.552186 2.4
    endloop
  endfacet
  facet normal -0.951057 -0.309017 0
    outer loop
      vertex 1.39466 0.552186 10.4
      vertex 1.45287 0.373034 2.4
      vertex 1.45287 0.373034 10.4
    endloop
  endfacet
  facet normal -0.982284 0.187396 0
    outer loop
      vertex 1.45287 -0.373034 2.4
      vertex 1.48817 -0.188 10.4
      vertex 1.48817 -0.188 2.4
    endloop
  endfacet
  facet normal -0.982284 0.187396 0
    outer loop
      vertex 1.48817 -0.188 10.4
      vertex 1.45287 -0.373034 2.4
      vertex 1.45287 -0.373034 10.4
    endloop
  endfacet
  facet normal -0.481757 -0.876305 0
    outer loop
      vertex 0.638668 1.35724 2.4
      vertex 0.80374 1.26649 10.4
      vertex 0.638668 1.35724 10.4
    endloop
  endfacet
  facet normal -0.481757 -0.876305 -0
    outer loop
      vertex 0.80374 1.26649 10.4
      vertex 0.638668 1.35724 2.4
      vertex 0.80374 1.26649 2.4
    endloop
  endfacet
  facet normal -0.125337 0.992114 0
    outer loop
      vertex 0.281072 -1.47343 2.4
      vertex 0.0941849 -1.49704 10.4
      vertex 0.281072 -1.47343 10.4
    endloop
  endfacet
  facet normal -0.125337 0.992114 0
    outer loop
      vertex 0.0941849 -1.49704 10.4
      vertex 0.281072 -1.47343 2.4
      vertex 0.0941849 -1.49704 2.4
    endloop
  endfacet
  facet normal 0.951057 -0.309017 0
    outer loop
      vertex -1.45287 0.373034 10.4
      vertex -1.39466 0.552186 2.4
      vertex -1.39466 0.552186 10.4
    endloop
  endfacet
  facet normal 0.951057 -0.309017 0
    outer loop
      vertex -1.39466 0.552186 2.4
      vertex -1.45287 0.373034 10.4
      vertex -1.45287 0.373034 2.4
    endloop
  endfacet
  facet normal -0.844314 -0.535848 0
    outer loop
      vertex 1.31446 0.722631 2.4
      vertex 1.21352 0.881678 10.4
      vertex 1.21352 0.881678 2.4
    endloop
  endfacet
  facet normal -0.844314 -0.535848 0
    outer loop
      vertex 1.21352 0.881678 10.4
      vertex 1.31446 0.722631 2.4
      vertex 1.31446 0.722631 10.4
    endloop
  endfacet
  facet normal -0.951057 0.309017 0
    outer loop
      vertex 1.39466 -0.552186 2.4
      vertex 1.45287 -0.373034 10.4
      vertex 1.45287 -0.373034 2.4
    endloop
  endfacet
  facet normal -0.951057 0.309017 0
    outer loop
      vertex 1.45287 -0.373034 10.4
      vertex 1.39466 -0.552186 2.4
      vertex 1.39466 -0.552186 10.4
    endloop
  endfacet
  facet normal 0.684557 -0.728959 0
    outer loop
      vertex -1.09345 1.02682 2.4
      vertex -0.956136 1.15577 10.4
      vertex -1.09345 1.02682 10.4
    endloop
  endfacet
  facet normal 0.684557 -0.728959 0
    outer loop
      vertex -0.956136 1.15577 10.4
      vertex -1.09345 1.02682 2.4
      vertex -0.956136 1.15577 2.4
    endloop
  endfacet
  facet normal -0.24871 0.968578 0
    outer loop
      vertex 0.463525 -1.42658 2.4
      vertex 0.281072 -1.47343 10.4
      vertex 0.463525 -1.42658 10.4
    endloop
  endfacet
  facet normal -0.24871 0.968578 0
    outer loop
      vertex 0.281072 -1.47343 10.4
      vertex 0.463525 -1.42658 2.4
      vertex 0.281072 -1.47343 2.4
    endloop
  endfacet
  facet normal 0.368106 -0.929784 0
    outer loop
      vertex -0.638668 1.35724 2.4
      vertex -0.463525 1.42658 10.4
      vertex -0.638668 1.35724 10.4
    endloop
  endfacet
  facet normal 0.368106 -0.929784 0
    outer loop
      vertex -0.463525 1.42658 10.4
      vertex -0.638668 1.35724 2.4
      vertex -0.463525 1.42658 2.4
    endloop
  endfacet
  facet normal -0.125337 -0.992114 0
    outer loop
      vertex 0.0941849 1.49704 2.4
      vertex 0.281072 1.47343 10.4
      vertex 0.0941849 1.49704 10.4
    endloop
  endfacet
  facet normal -0.125337 -0.992114 -0
    outer loop
      vertex 0.281072 1.47343 10.4
      vertex 0.0941849 1.49704 2.4
      vertex 0.281072 1.47343 2.4
    endloop
  endfacet
  facet normal 0.24871 -0.968578 0
    outer loop
      vertex -0.463525 1.42658 2.4
      vertex -0.281072 1.47343 10.4
      vertex -0.463525 1.42658 10.4
    endloop
  endfacet
  facet normal 0.24871 -0.968578 0
    outer loop
      vertex -0.281072 1.47343 10.4
      vertex -0.463525 1.42658 2.4
      vertex -0.281072 1.47343 2.4
    endloop
  endfacet
  facet normal 0.982284 0.187396 0
    outer loop
      vertex -1.45287 -0.373034 10.4
      vertex -1.48817 -0.188 2.4
      vertex -1.48817 -0.188 10.4
    endloop
  endfacet
  facet normal 0.982284 0.187396 0
    outer loop
      vertex -1.48817 -0.188 2.4
      vertex -1.45287 -0.373034 10.4
      vertex -1.45287 -0.373034 2.4
    endloop
  endfacet
  facet normal -0.587778 -0.809022 0
    outer loop
      vertex 0.80374 1.26649 2.4
      vertex 0.956136 1.15577 10.4
      vertex 0.80374 1.26649 10.4
    endloop
  endfacet
  facet normal -0.587778 -0.809022 -0
    outer loop
      vertex 0.956136 1.15577 10.4
      vertex 0.80374 1.26649 2.4
      vertex 0.956136 1.15577 2.4
    endloop
  endfacet
  facet normal 0.998026 0.0628013 0
    outer loop
      vertex -1.48817 -0.188 10.4
      vertex -1.5 0 2.4
      vertex -1.5 0 10.4
    endloop
  endfacet
  facet normal 0.998026 0.0628013 0
    outer loop
      vertex -1.5 0 2.4
      vertex -1.48817 -0.188 10.4
      vertex -1.48817 -0.188 2.4
    endloop
  endfacet
  facet normal -0.481757 0.876305 0
    outer loop
      vertex 0.80374 -1.26649 2.4
      vertex 0.638668 -1.35724 10.4
      vertex 0.80374 -1.26649 10.4
    endloop
  endfacet
  facet normal -0.481757 0.876305 0
    outer loop
      vertex 0.638668 -1.35724 10.4
      vertex 0.80374 -1.26649 2.4
      vertex 0.638668 -1.35724 2.4
    endloop
  endfacet
  facet normal 0.125337 0.992114 -0
    outer loop
      vertex -0.0941849 -1.49704 2.4
      vertex -0.281072 -1.47343 10.4
      vertex -0.0941849 -1.49704 10.4
    endloop
  endfacet
  facet normal 0.125337 0.992114 0
    outer loop
      vertex -0.281072 -1.47343 10.4
      vertex -0.0941849 -1.49704 2.4
      vertex -0.281072 -1.47343 2.4
    endloop
  endfacet
  facet normal 0.904838 -0.425756 0
    outer loop
      vertex -1.39466 0.552186 10.4
      vertex -1.31446 0.722631 2.4
      vertex -1.31446 0.722631 10.4
    endloop
  endfacet
  facet normal 0.904838 -0.425756 0
    outer loop
      vertex -1.31446 0.722631 2.4
      vertex -1.39466 0.552186 10.4
      vertex -1.39466 0.552186 2.4
    endloop
  endfacet
  facet normal 0.770518 0.637418 0
    outer loop
      vertex -1.09345 -1.02682 10.4
      vertex -1.21352 -0.881678 2.4
      vertex -1.21352 -0.881678 10.4
    endloop
  endfacet
  facet normal 0.770518 0.637418 0
    outer loop
      vertex -1.21352 -0.881678 2.4
      vertex -1.09345 -1.02682 10.4
      vertex -1.09345 -1.02682 2.4
    endloop
  endfacet
  facet normal 0.125337 -0.992114 0
    outer loop
      vertex -0.281072 1.47343 2.4
      vertex -0.0941849 1.49704 10.4
      vertex -0.281072 1.47343 10.4
    endloop
  endfacet
  facet normal 0.125337 -0.992114 0
    outer loop
      vertex -0.0941849 1.49704 10.4
      vertex -0.281072 1.47343 2.4
      vertex -0.0941849 1.49704 2.4
    endloop
  endfacet
  facet normal -0.684557 0.728959 0
    outer loop
      vertex 1.09345 -1.02682 2.4
      vertex 0.956136 -1.15577 10.4
      vertex 1.09345 -1.02682 10.4
    endloop
  endfacet
  facet normal -0.684557 0.728959 0
    outer loop
      vertex 0.956136 -1.15577 10.4
      vertex 1.09345 -1.02682 2.4
      vertex 0.956136 -1.15577 2.4
    endloop
  endfacet
  facet normal 0.904838 0.425756 0
    outer loop
      vertex -1.31446 -0.722631 10.4
      vertex -1.39466 -0.552186 2.4
      vertex -1.39466 -0.552186 10.4
    endloop
  endfacet
  facet normal 0.904838 0.425756 0
    outer loop
      vertex -1.39466 -0.552186 2.4
      vertex -1.31446 -0.722631 10.4
      vertex -1.31446 -0.722631 2.4
    endloop
  endfacet
  facet normal 0.368106 0.929784 -0
    outer loop
      vertex -0.463525 -1.42658 2.4
      vertex -0.638668 -1.35724 10.4
      vertex -0.463525 -1.42658 10.4
    endloop
  endfacet
  facet normal 0.368106 0.929784 0
    outer loop
      vertex -0.638668 -1.35724 10.4
      vertex -0.463525 -1.42658 2.4
      vertex -0.638668 -1.35724 2.4
    endloop
  endfacet
  facet normal 0.587778 -0.809022 0
    outer loop
      vertex -0.956136 1.15577 2.4
      vertex -0.80374 1.26649 10.4
      vertex -0.956136 1.15577 10.4
    endloop
  endfacet
  facet normal 0.587778 -0.809022 0
    outer loop
      vertex -0.80374 1.26649 10.4
      vertex -0.956136 1.15577 2.4
      vertex -0.80374 1.26649 2.4
    endloop
  endfacet
  facet normal 0.844314 -0.535848 0
    outer loop
      vertex -1.31446 0.722631 10.4
      vertex -1.21352 0.881678 2.4
      vertex -1.21352 0.881678 10.4
    endloop
  endfacet
  facet normal 0.844314 -0.535848 0
    outer loop
      vertex -1.21352 0.881678 2.4
      vertex -1.31446 0.722631 10.4
      vertex -1.31446 0.722631 2.4
    endloop
  endfacet
  facet normal -0.844314 0.535848 0
    outer loop
      vertex 1.21352 -0.881678 2.4
      vertex 1.31446 -0.722631 10.4
      vertex 1.31446 -0.722631 2.4
    endloop
  endfacet
  facet normal -0.844314 0.535848 0
    outer loop
      vertex 1.31446 -0.722631 10.4
      vertex 1.21352 -0.881678 2.4
      vertex 1.21352 -0.881678 10.4
    endloop
  endfacet
  facet normal 0 -1 0
    outer loop
      vertex -0.0941849 1.49704 2.4
      vertex 0.0941849 1.49704 10.4
      vertex -0.0941849 1.49704 10.4
    endloop
  endfacet
  facet normal 0 -1 -0
    outer loop
      vertex 0.0941849 1.49704 10.4
      vertex -0.0941849 1.49704 2.4
      vertex 0.0941849 1.49704 2.4
    endloop
  endfacet
  facet normal -0.770518 -0.637418 0
    outer loop
      vertex 1.21352 0.881678 2.4
      vertex 1.09345 1.02682 10.4
      vertex 1.09345 1.02682 2.4
    endloop
  endfacet
  facet normal -0.770518 -0.637418 0
    outer loop
      vertex 1.09345 1.02682 10.4
      vertex 1.21352 0.881678 2.4
      vertex 1.21352 0.881678 10.4
    endloop
  endfacet
  facet normal -0.587778 0.809022 0
    outer loop
      vertex 0.956136 -1.15577 2.4
      vertex 0.80374 -1.26649 10.4
      vertex 0.956136 -1.15577 10.4
    endloop
  endfacet
  facet normal -0.587778 0.809022 0
    outer loop
      vertex 0.80374 -1.26649 10.4
      vertex 0.956136 -1.15577 2.4
      vertex 0.80374 -1.26649 2.4
    endloop
  endfacet
  facet normal 0.24871 0.968578 -0
    outer loop
      vertex -0.281072 -1.47343 2.4
      vertex -0.463525 -1.42658 10.4
      vertex -0.281072 -1.47343 10.4
    endloop
  endfacet
  facet normal 0.24871 0.968578 0
    outer loop
      vertex -0.463525 -1.42658 10.4
      vertex -0.281072 -1.47343 2.4
      vertex -0.463525 -1.42658 2.4
    endloop
  endfacet
  facet normal 0 1 -0
    outer loop
      vertex 0.0941849 -1.49704 2.4
      vertex -0.0941849 -1.49704 10.4
      vertex 0.0941849 -1.49704 10.4
    endloop
  endfacet
  facet normal 0 1 0
    outer loop
      vertex -0.0941849 -1.49704 10.4
      vertex 0.0941849 -1.49704 2.4
      vertex -0.0941849 -1.49704 2.4
    endloop
  endfacet
  facet normal 0.770518 -0.637418 0
    outer loop
      vertex -1.21352 0.881678 10.4
      vertex -1.09345 1.02682 2.4
      vertex -1.09345 1.02682 10.4
    endloop
  endfacet
  facet normal 0.770518 -0.637418 0
    outer loop
      vertex -1.09345 1.02682 2.4
      vertex -1.21352 0.881678 10.4
      vertex -1.21352 0.881678 2.4
    endloop
  endfacet
  facet normal 0.481757 0.876305 -0
    outer loop
      vertex -0.638668 -1.35724 2.4
      vertex -0.80374 -1.26649 10.4
      vertex -0.638668 -1.35724 10.4
    endloop
  endfacet
  facet normal 0.481757 0.876305 0
    outer loop
      vertex -0.80374 -1.26649 10.4
      vertex -0.638668 -1.35724 2.4
      vertex -0.80374 -1.26649 2.4
    endloop
  endfacet
  facet normal 0.684557 0.728959 -0
    outer loop
      vertex -0.956136 -1.15577 2.4
      vertex -1.09345 -1.02682 10.4
      vertex -0.956136 -1.15577 10.4
    endloop
  endfacet
  facet normal 0.684557 0.728959 0
    outer loop
      vertex -1.09345 -1.02682 10.4
      vertex -0.956136 -1.15577 2.4
      vertex -1.09345 -1.02682 2.4
    endloop
  endfacet
  facet normal 0.951057 0.309017 0
    outer loop
      vertex -1.39466 -0.552186 10.4
      vertex -1.45287 -0.373034 2.4
      vertex -1.45287 -0.373034 10.4
    endloop
  endfacet
  facet normal 0.951057 0.309017 0
    outer loop
      vertex -1.45287 -0.373034 2.4
      vertex -1.39466 -0.552186 10.4
      vertex -1.39466 -0.552186 2.4
    endloop
  endfacet
  facet normal -0.770518 0.637418 0
    outer loop
      vertex 1.09345 -1.02682 2.4
      vertex 1.21352 -0.881678 10.4
      vertex 1.21352 -0.881678 2.4
    endloop
  endfacet
  facet normal -0.770518 0.637418 0
    outer loop
      vertex 1.21352 -0.881678 10.4
      vertex 1.09345 -1.02682 2.4
      vertex 1.09345 -1.02682 10.4
    endloop
  endfacet
  facet normal 0.998026 -0.0628013 0
    outer loop
      vertex -1.5 0 10.4
      vertex -1.48817 0.188 2.4
      vertex -1.48817 0.188 10.4
    endloop
  endfacet
  facet normal 0.998026 -0.0628013 0
    outer loop
      vertex -1.48817 0.188 2.4
      vertex -1.5 0 10.4
      vertex -1.5 0 2.4
    endloop
  endfacet
  facet normal 0.982284 -0.187396 0
    outer loop
      vertex -1.48817 0.188 10.4
      vertex -1.45287 0.373034 2.4
      vertex -1.45287 0.373034 10.4
    endloop
  endfacet
  facet normal 0.982284 -0.187396 0
    outer loop
      vertex -1.45287 0.373034 2.4
      vertex -1.48817 0.188 10.4
      vertex -1.48817 0.188 2.4
    endloop
  endfacet
endsolid OpenSCAD_Model
